<svg width="138" height="34" fill="none" xmlns="http://www.w3.org/2000/svg"><path d="M0 .564h7.633v26.674H24.17v6.199H0V.564zM43.854 34c-3.424 0-6.517-.736-9.282-2.207-2.732-1.472-4.884-3.491-6.454-6.058-1.54-2.599-2.309-5.51-2.309-8.735 0-3.225.77-6.12 2.309-8.688 1.57-2.598 3.722-4.633 6.454-6.105C37.337.736 40.43 0 43.855 0c3.424 0 6.502.736 9.235 2.207 2.732 1.472 4.884 3.507 6.454 6.105C61.113 10.88 61.9 13.775 61.9 17c0 3.225-.785 6.136-2.356 8.735-1.57 2.567-3.722 4.586-6.454 6.058C50.356 33.264 47.278 34 43.854 34zm0-6.48c1.947 0 3.706-.439 5.277-1.316a9.619 9.619 0 003.675-3.756c.91-1.597 1.366-3.413 1.366-5.448 0-2.035-.455-3.85-1.366-5.447a9.297 9.297 0 00-3.675-3.71c-1.57-.908-3.33-1.362-5.277-1.362s-3.706.454-5.277 1.362c-1.57.876-2.81 2.113-3.722 3.71-.88 1.596-1.319 3.412-1.319 5.447s.44 3.85 1.32 5.448a9.958 9.958 0 003.721 3.756c1.57.877 3.33 1.315 5.277 1.315zM89.92 16.483h6.973V29.82c-1.79 1.347-3.863 2.38-6.219 3.1A24.217 24.217 0 0183.56 34c-3.424 0-6.502-.72-9.235-2.16-2.732-1.472-4.884-3.491-6.454-6.058-1.54-2.599-2.309-5.526-2.309-8.782 0-3.256.77-6.168 2.309-8.735 1.57-2.598 3.738-4.618 6.502-6.058C77.136.736 80.246 0 83.7 0c2.89 0 5.513.485 7.868 1.456 2.356.97 4.335 2.38 5.937 4.226l-4.9 4.509c-2.356-2.474-5.198-3.71-8.528-3.71-2.104 0-3.973.438-5.606 1.315a9.45 9.45 0 00-3.817 3.71c-.91 1.596-1.366 3.428-1.366 5.494 0 2.035.455 3.85 1.366 5.448a9.859 9.859 0 003.77 3.756c1.633.877 3.486 1.315 5.559 1.315 2.199 0 4.177-.47 5.936-1.409v-9.627zM119.955 34c-3.424 0-6.517-.736-9.281-2.207-2.733-1.472-4.885-3.491-6.455-6.058-1.539-2.599-2.309-5.51-2.309-8.735 0-3.225.77-6.12 2.309-8.688 1.57-2.598 3.722-4.633 6.455-6.105C113.438.736 116.531 0 119.955 0c3.424 0 6.502.736 9.235 2.207 2.732 1.472 4.884 3.507 6.454 6.105C137.215 10.88 138 13.775 138 17c0 3.225-.785 6.136-2.356 8.735-1.57 2.567-3.722 4.586-6.454 6.058-2.733 1.471-5.811 2.207-9.235 2.207zm0-6.48c1.948 0 3.706-.439 5.277-1.316a9.626 9.626 0 003.675-3.756c.911-1.597 1.366-3.413 1.366-5.448 0-2.035-.455-3.85-1.366-5.447a9.304 9.304 0 00-3.675-3.71c-1.571-.908-3.329-1.362-5.277-1.362-1.947 0-3.706.454-5.277 1.362-1.57.876-2.811 2.113-3.722 3.71-.879 1.596-1.319 3.412-1.319 5.447s.44 3.85 1.319 5.448a9.962 9.962 0 003.722 3.756c1.571.877 3.33 1.315 5.277 1.315z" fill="#1A1A1A"/></svg>
